<?xml version="1.0" encoding="UTF-8"?>
<?xml-stylesheet href="https://cdnjs.cloudflare.com/ajax/libs/font-awesome/6.6.0/css/all.min.css" type="text/css"?>
<svg aria-roledescription="er" role="graphics-document document" viewBox="-38.19071388244629 0 310.6563720703125 884" style="max-width: 100%;" xmlns="http://www.w3.org/2000/svg" width="100%" id="graph-div" height="100%" xmlns:xlink="http://www.w3.org/1999/xlink"><style>#graph-div{font-family:"trebuchet ms",verdana,arial,sans-serif;font-size:16px;fill:#333;}#graph-div .error-icon{fill:#552222;}#graph-div .error-text{fill:#552222;stroke:#552222;}#graph-div .edge-thickness-normal{stroke-width:1px;}#graph-div .edge-thickness-thick{stroke-width:3.5px;}#graph-div .edge-pattern-solid{stroke-dasharray:0;}#graph-div .edge-thickness-invisible{stroke-width:0;fill:none;}#graph-div .edge-pattern-dashed{stroke-dasharray:3;}#graph-div .edge-pattern-dotted{stroke-dasharray:2;}#graph-div .marker{fill:#333333;stroke:#333333;}#graph-div .marker.cross{stroke:#333333;}#graph-div svg{font-family:"trebuchet ms",verdana,arial,sans-serif;font-size:16px;}#graph-div p{margin:0;}#graph-div .entityBox{fill:#ECECFF;stroke:#9370DB;}#graph-div .attributeBoxOdd{fill:#ffffff;stroke:#9370DB;}#graph-div .attributeBoxEven{fill:#f2f2f2;stroke:#9370DB;}#graph-div .relationshipLabelBox{fill:hsl(80, 100%, 96.2745098039%);opacity:0.7;background-color:hsl(80, 100%, 96.2745098039%);}#graph-div .relationshipLabelBox rect{opacity:0.5;}#graph-div .relationshipLine{stroke:#333333;}#graph-div .entityTitleText{text-anchor:middle;font-size:18px;fill:#333;}#graph-div #MD_PARENT_START{fill:#f5f5f5!important;stroke:#333333!important;stroke-width:1;}#graph-div #MD_PARENT_END{fill:#f5f5f5!important;stroke:#333333!important;stroke-width:1;}#graph-div :root{--mermaid-font-family:"trebuchet ms",verdana,arial,sans-serif;}</style><g></g><defs><marker orient="auto" markerHeight="240" markerWidth="190" refY="7" refX="0" id="MD_PARENT_START"><path d="M 18,7 L9,13 L1,7 L9,1 Z"></path></marker></defs><defs><marker orient="auto" markerHeight="28" markerWidth="20" refY="7" refX="19" id="MD_PARENT_END"><path d="M 18,7 L9,13 L1,7 L9,1 Z"></path></marker></defs><defs><marker orient="auto" markerHeight="18" markerWidth="18" refY="9" refX="0" id="ONLY_ONE_START"><path d="M9,0 L9,18 M15,0 L15,18" fill="none" stroke="gray"></path></marker></defs><defs><marker orient="auto" markerHeight="18" markerWidth="18" refY="9" refX="18" id="ONLY_ONE_END"><path d="M3,0 L3,18 M9,0 L9,18" fill="none" stroke="gray"></path></marker></defs><defs><marker orient="auto" markerHeight="18" markerWidth="30" refY="9" refX="0" id="ZERO_OR_ONE_START"><circle r="6" cy="9" cx="21" fill="white" stroke="gray"></circle><path d="M9,0 L9,18" fill="none" stroke="gray"></path></marker></defs><defs><marker orient="auto" markerHeight="18" markerWidth="30" refY="9" refX="30" id="ZERO_OR_ONE_END"><circle r="6" cy="9" cx="9" fill="white" stroke="gray"></circle><path d="M21,0 L21,18" fill="none" stroke="gray"></path></marker></defs><defs><marker orient="auto" markerHeight="36" markerWidth="45" refY="18" refX="18" id="ONE_OR_MORE_START"><path d="M0,18 Q 18,0 36,18 Q 18,36 0,18 M42,9 L42,27" fill="none" stroke="gray"></path></marker></defs><defs><marker orient="auto" markerHeight="36" markerWidth="45" refY="18" refX="27" id="ONE_OR_MORE_END"><path d="M3,9 L3,27 M9,18 Q27,0 45,18 Q27,36 9,18" fill="none" stroke="gray"></path></marker></defs><defs><marker orient="auto" markerHeight="36" markerWidth="57" refY="18" refX="18" id="ZERO_OR_MORE_START"><circle r="6" cy="18" cx="48" fill="white" stroke="gray"></circle><path d="M0,18 Q18,0 36,18 Q18,36 0,18" fill="none" stroke="gray"></path></marker></defs><defs><marker orient="auto" markerHeight="36" markerWidth="57" refY="18" refX="39" id="ZERO_OR_MORE_END"><circle r="6" cy="18" cx="9" fill="white" stroke="gray"></circle><path d="M21,18 Q39,0 57,18 Q39,36 21,18" fill="none" stroke="gray"></path></marker></defs><path style="stroke: gray; fill: none;" marker-start="url(#ONLY_ONE_START)" marker-end="url(#ZERO_OR_MORE_END)" d="M149.327,220L154.164,228.333C159,236.667,168.674,253.333,173.51,270C178.347,286.667,178.347,303.333,178.347,311.667L178.347,320" class="er relationshipLine"></path><path style="stroke: gray; fill: none;" marker-start="url(#ONLY_ONE_START)" marker-end="url(#ZERO_OR_MORE_END)" d="M33.248,220L28.411,228.333C23.575,236.667,13.901,253.333,9.065,288.5C4.228,323.667,4.228,377.333,4.228,431C4.228,484.667,4.228,538.333,8.734,573.5C13.24,608.667,22.253,625.333,26.759,633.667L31.265,642" class="er relationshipLine"></path><path style="stroke: gray; fill: none;" marker-start="url(#ONLY_ONE_START)" marker-end="url(#ZERO_OR_MORE_END)" d="M178.347,542L178.347,550.333C178.347,558.667,178.347,575.333,173.841,592C169.335,608.667,160.322,625.333,155.816,633.667L151.31,642" class="er relationshipLine"></path><g transform="translate(20,20 )" id="entity-products-ce7ac559-5ef1-5445-aa6b-0190aa04e35c"><rect height="200" width="142.57500076293945" y="0" x="0" class="er entityBox"></rect><text transform="translate(71.28750038146973,12)" style="dominant-baseline: middle; text-anchor: middle; font-size: 12px;" y="0" x="0" id="text-entity-products-ce7ac559-5ef1-5445-aa6b-0190aa04e35c" class="er entityLabel">products</text><rect height="22" width="58.66875076293945" y="24" x="0" class="er attributeBoxOdd"></rect><text transform="translate(5,35)" style="dominant-baseline: middle; font-size: 10.2px;" y="0" x="0" id="text-entity-products-ce7ac559-5ef1-5445-aa6b-0190aa04e35c-attr-1-type" class="er entityLabel">bigint</text><rect height="22" width="62.34375" y="24" x="58.66875076293945" class="er attributeBoxOdd"></rect><text transform="translate(63.66875076293945,35)" style="dominant-baseline: middle; font-size: 10.2px;" y="0" x="0" id="text-entity-products-ce7ac559-5ef1-5445-aa6b-0190aa04e35c-attr-1-name" class="er entityLabel">id</text><rect height="22" width="21.5625" y="24" x="121.01250076293945" class="er attributeBoxOdd"></rect><text transform="translate(126.01250076293945,35)" style="dominant-baseline: middle; font-size: 10.2px;" y="0" x="0" id="text-entity-products-ce7ac559-5ef1-5445-aa6b-0190aa04e35c-attr-1-key" class="er entityLabel">PK</text><rect height="22" width="58.66875076293945" y="46" x="0" class="er attributeBoxEven"></rect><text transform="translate(5,57)" style="dominant-baseline: middle; font-size: 10.2px;" y="0" x="0" id="text-entity-products-ce7ac559-5ef1-5445-aa6b-0190aa04e35c-attr-2-type" class="er entityLabel">varchar</text><rect height="22" width="62.34375" y="46" x="58.66875076293945" class="er attributeBoxEven"></rect><text transform="translate(63.66875076293945,57)" style="dominant-baseline: middle; font-size: 10.2px;" y="0" x="0" id="text-entity-products-ce7ac559-5ef1-5445-aa6b-0190aa04e35c-attr-2-name" class="er entityLabel">name</text><rect height="22" width="21.5625" y="46" x="121.01250076293945" class="er attributeBoxEven"></rect><text transform="translate(126.01250076293945,57)" style="dominant-baseline: middle; font-size: 10.2px;" y="0" x="0" id="text-entity-products-ce7ac559-5ef1-5445-aa6b-0190aa04e35c-attr-2-key" class="er entityLabel"></text><rect height="22" width="58.66875076293945" y="68" x="0" class="er attributeBoxOdd"></rect><text transform="translate(5,79)" style="dominant-baseline: middle; font-size: 10.2px;" y="0" x="0" id="text-entity-products-ce7ac559-5ef1-5445-aa6b-0190aa04e35c-attr-3-type" class="er entityLabel">text</text><rect height="22" width="62.34375" y="68" x="58.66875076293945" class="er attributeBoxOdd"></rect><text transform="translate(63.66875076293945,79)" style="dominant-baseline: middle; font-size: 10.2px;" y="0" x="0" id="text-entity-products-ce7ac559-5ef1-5445-aa6b-0190aa04e35c-attr-3-name" class="er entityLabel">description</text><rect height="22" width="21.5625" y="68" x="121.01250076293945" class="er attributeBoxOdd"></rect><text transform="translate(126.01250076293945,79)" style="dominant-baseline: middle; font-size: 10.2px;" y="0" x="0" id="text-entity-products-ce7ac559-5ef1-5445-aa6b-0190aa04e35c-attr-3-key" class="er entityLabel"></text><rect height="22" width="58.66875076293945" y="90" x="0" class="er attributeBoxEven"></rect><text transform="translate(5,101)" style="dominant-baseline: middle; font-size: 10.2px;" y="0" x="0" id="text-entity-products-ce7ac559-5ef1-5445-aa6b-0190aa04e35c-attr-4-type" class="er entityLabel">decimal</text><rect height="22" width="62.34375" y="90" x="58.66875076293945" class="er attributeBoxEven"></rect><text transform="translate(63.66875076293945,101)" style="dominant-baseline: middle; font-size: 10.2px;" y="0" x="0" id="text-entity-products-ce7ac559-5ef1-5445-aa6b-0190aa04e35c-attr-4-name" class="er entityLabel">price</text><rect height="22" width="21.5625" y="90" x="121.01250076293945" class="er attributeBoxEven"></rect><text transform="translate(126.01250076293945,101)" style="dominant-baseline: middle; font-size: 10.2px;" y="0" x="0" id="text-entity-products-ce7ac559-5ef1-5445-aa6b-0190aa04e35c-attr-4-key" class="er entityLabel"></text><rect height="22" width="58.66875076293945" y="112" x="0" class="er attributeBoxOdd"></rect><text transform="translate(5,123)" style="dominant-baseline: middle; font-size: 10.2px;" y="0" x="0" id="text-entity-products-ce7ac559-5ef1-5445-aa6b-0190aa04e35c-attr-5-type" class="er entityLabel">int</text><rect height="22" width="62.34375" y="112" x="58.66875076293945" class="er attributeBoxOdd"></rect><text transform="translate(63.66875076293945,123)" style="dominant-baseline: middle; font-size: 10.2px;" y="0" x="0" id="text-entity-products-ce7ac559-5ef1-5445-aa6b-0190aa04e35c-attr-5-name" class="er entityLabel">stock</text><rect height="22" width="21.5625" y="112" x="121.01250076293945" class="er attributeBoxOdd"></rect><text transform="translate(126.01250076293945,123)" style="dominant-baseline: middle; font-size: 10.2px;" y="0" x="0" id="text-entity-products-ce7ac559-5ef1-5445-aa6b-0190aa04e35c-attr-5-key" class="er entityLabel"></text><rect height="22" width="58.66875076293945" y="134" x="0" class="er attributeBoxEven"></rect><text transform="translate(5,145)" style="dominant-baseline: middle; font-size: 10.2px;" y="0" x="0" id="text-entity-products-ce7ac559-5ef1-5445-aa6b-0190aa04e35c-attr-6-type" class="er entityLabel">tinyint</text><rect height="22" width="62.34375" y="134" x="58.66875076293945" class="er attributeBoxEven"></rect><text transform="translate(63.66875076293945,145)" style="dominant-baseline: middle; font-size: 10.2px;" y="0" x="0" id="text-entity-products-ce7ac559-5ef1-5445-aa6b-0190aa04e35c-attr-6-name" class="er entityLabel">status</text><rect height="22" width="21.5625" y="134" x="121.01250076293945" class="er attributeBoxEven"></rect><text transform="translate(126.01250076293945,145)" style="dominant-baseline: middle; font-size: 10.2px;" y="0" x="0" id="text-entity-products-ce7ac559-5ef1-5445-aa6b-0190aa04e35c-attr-6-key" class="er entityLabel"></text><rect height="22" width="58.66875076293945" y="156" x="0" class="er attributeBoxOdd"></rect><text transform="translate(5,167)" style="dominant-baseline: middle; font-size: 10.2px;" y="0" x="0" id="text-entity-products-ce7ac559-5ef1-5445-aa6b-0190aa04e35c-attr-7-type" class="er entityLabel">timestamp</text><rect height="22" width="62.34375" y="156" x="58.66875076293945" class="er attributeBoxOdd"></rect><text transform="translate(63.66875076293945,167)" style="dominant-baseline: middle; font-size: 10.2px;" y="0" x="0" id="text-entity-products-ce7ac559-5ef1-5445-aa6b-0190aa04e35c-attr-7-name" class="er entityLabel">created_at</text><rect height="22" width="21.5625" y="156" x="121.01250076293945" class="er attributeBoxOdd"></rect><text transform="translate(126.01250076293945,167)" style="dominant-baseline: middle; font-size: 10.2px;" y="0" x="0" id="text-entity-products-ce7ac559-5ef1-5445-aa6b-0190aa04e35c-attr-7-key" class="er entityLabel"></text><rect height="22" width="58.66875076293945" y="178" x="0" class="er attributeBoxEven"></rect><text transform="translate(5,189)" style="dominant-baseline: middle; font-size: 10.2px;" y="0" x="0" id="text-entity-products-ce7ac559-5ef1-5445-aa6b-0190aa04e35c-attr-8-type" class="er entityLabel">timestamp</text><rect height="22" width="62.34375" y="178" x="58.66875076293945" class="er attributeBoxEven"></rect><text transform="translate(63.66875076293945,189)" style="dominant-baseline: middle; font-size: 10.2px;" y="0" x="0" id="text-entity-products-ce7ac559-5ef1-5445-aa6b-0190aa04e35c-attr-8-name" class="er entityLabel">updated_at</text><rect height="22" width="21.5625" y="178" x="121.01250076293945" class="er attributeBoxEven"></rect><text transform="translate(126.01250076293945,189)" style="dominant-baseline: middle; font-size: 10.2px;" y="0" x="0" id="text-entity-products-ce7ac559-5ef1-5445-aa6b-0190aa04e35c-attr-8-key" class="er entityLabel"></text></g><g transform="translate(104.22812271118164,320 )" id="entity-seckillactivities-ff21f2a9-5c26-5c7d-8b07-237c329197ec"><rect height="222" width="148.2375030517578" y="0" x="0" class="er entityBox"></rect><text transform="translate(74.1187515258789,12)" style="dominant-baseline: middle; text-anchor: middle; font-size: 12px;" y="0" x="0" id="text-entity-seckillactivities-ff21f2a9-5c26-5c7d-8b07-237c329197ec" class="er entityLabel">seckill_activities</text><rect height="22" width="58.66875076293945" y="24" x="0" class="er attributeBoxOdd"></rect><text transform="translate(5,35)" style="dominant-baseline: middle; font-size: 10.2px;" y="0" x="0" id="text-entity-seckillactivities-ff21f2a9-5c26-5c7d-8b07-237c329197ec-attr-1-type" class="er entityLabel">bigint</text><rect height="22" width="68.00625228881836" y="24" x="58.66875076293945" class="er attributeBoxOdd"></rect><text transform="translate(63.66875076293945,35)" style="dominant-baseline: middle; font-size: 10.2px;" y="0" x="0" id="text-entity-seckillactivities-ff21f2a9-5c26-5c7d-8b07-237c329197ec-attr-1-name" class="er entityLabel">id</text><rect height="22" width="21.5625" y="24" x="126.67500305175781" class="er attributeBoxOdd"></rect><text transform="translate(131.6750030517578,35)" style="dominant-baseline: middle; font-size: 10.2px;" y="0" x="0" id="text-entity-seckillactivities-ff21f2a9-5c26-5c7d-8b07-237c329197ec-attr-1-key" class="er entityLabel">PK</text><rect height="22" width="58.66875076293945" y="46" x="0" class="er attributeBoxEven"></rect><text transform="translate(5,57)" style="dominant-baseline: middle; font-size: 10.2px;" y="0" x="0" id="text-entity-seckillactivities-ff21f2a9-5c26-5c7d-8b07-237c329197ec-attr-2-type" class="er entityLabel">bigint</text><rect height="22" width="68.00625228881836" y="46" x="58.66875076293945" class="er attributeBoxEven"></rect><text transform="translate(63.66875076293945,57)" style="dominant-baseline: middle; font-size: 10.2px;" y="0" x="0" id="text-entity-seckillactivities-ff21f2a9-5c26-5c7d-8b07-237c329197ec-attr-2-name" class="er entityLabel">product_id</text><rect height="22" width="21.5625" y="46" x="126.67500305175781" class="er attributeBoxEven"></rect><text transform="translate(131.6750030517578,57)" style="dominant-baseline: middle; font-size: 10.2px;" y="0" x="0" id="text-entity-seckillactivities-ff21f2a9-5c26-5c7d-8b07-237c329197ec-attr-2-key" class="er entityLabel">FK</text><rect height="22" width="58.66875076293945" y="68" x="0" class="er attributeBoxOdd"></rect><text transform="translate(5,79)" style="dominant-baseline: middle; font-size: 10.2px;" y="0" x="0" id="text-entity-seckillactivities-ff21f2a9-5c26-5c7d-8b07-237c329197ec-attr-3-type" class="er entityLabel">decimal</text><rect height="22" width="68.00625228881836" y="68" x="58.66875076293945" class="er attributeBoxOdd"></rect><text transform="translate(63.66875076293945,79)" style="dominant-baseline: middle; font-size: 10.2px;" y="0" x="0" id="text-entity-seckillactivities-ff21f2a9-5c26-5c7d-8b07-237c329197ec-attr-3-name" class="er entityLabel">seckill_price</text><rect height="22" width="21.5625" y="68" x="126.67500305175781" class="er attributeBoxOdd"></rect><text transform="translate(131.6750030517578,79)" style="dominant-baseline: middle; font-size: 10.2px;" y="0" x="0" id="text-entity-seckillactivities-ff21f2a9-5c26-5c7d-8b07-237c329197ec-attr-3-key" class="er entityLabel"></text><rect height="22" width="58.66875076293945" y="90" x="0" class="er attributeBoxEven"></rect><text transform="translate(5,101)" style="dominant-baseline: middle; font-size: 10.2px;" y="0" x="0" id="text-entity-seckillactivities-ff21f2a9-5c26-5c7d-8b07-237c329197ec-attr-4-type" class="er entityLabel">int</text><rect height="22" width="68.00625228881836" y="90" x="58.66875076293945" class="er attributeBoxEven"></rect><text transform="translate(63.66875076293945,101)" style="dominant-baseline: middle; font-size: 10.2px;" y="0" x="0" id="text-entity-seckillactivities-ff21f2a9-5c26-5c7d-8b07-237c329197ec-attr-4-name" class="er entityLabel">seckill_stock</text><rect height="22" width="21.5625" y="90" x="126.67500305175781" class="er attributeBoxEven"></rect><text transform="translate(131.6750030517578,101)" style="dominant-baseline: middle; font-size: 10.2px;" y="0" x="0" id="text-entity-seckillactivities-ff21f2a9-5c26-5c7d-8b07-237c329197ec-attr-4-key" class="er entityLabel"></text><rect height="22" width="58.66875076293945" y="112" x="0" class="er attributeBoxOdd"></rect><text transform="translate(5,123)" style="dominant-baseline: middle; font-size: 10.2px;" y="0" x="0" id="text-entity-seckillactivities-ff21f2a9-5c26-5c7d-8b07-237c329197ec-attr-5-type" class="er entityLabel">timestamp</text><rect height="22" width="68.00625228881836" y="112" x="58.66875076293945" class="er attributeBoxOdd"></rect><text transform="translate(63.66875076293945,123)" style="dominant-baseline: middle; font-size: 10.2px;" y="0" x="0" id="text-entity-seckillactivities-ff21f2a9-5c26-5c7d-8b07-237c329197ec-attr-5-name" class="er entityLabel">start_time</text><rect height="22" width="21.5625" y="112" x="126.67500305175781" class="er attributeBoxOdd"></rect><text transform="translate(131.6750030517578,123)" style="dominant-baseline: middle; font-size: 10.2px;" y="0" x="0" id="text-entity-seckillactivities-ff21f2a9-5c26-5c7d-8b07-237c329197ec-attr-5-key" class="er entityLabel"></text><rect height="22" width="58.66875076293945" y="134" x="0" class="er attributeBoxEven"></rect><text transform="translate(5,145)" style="dominant-baseline: middle; font-size: 10.2px;" y="0" x="0" id="text-entity-seckillactivities-ff21f2a9-5c26-5c7d-8b07-237c329197ec-attr-6-type" class="er entityLabel">timestamp</text><rect height="22" width="68.00625228881836" y="134" x="58.66875076293945" class="er attributeBoxEven"></rect><text transform="translate(63.66875076293945,145)" style="dominant-baseline: middle; font-size: 10.2px;" y="0" x="0" id="text-entity-seckillactivities-ff21f2a9-5c26-5c7d-8b07-237c329197ec-attr-6-name" class="er entityLabel">end_time</text><rect height="22" width="21.5625" y="134" x="126.67500305175781" class="er attributeBoxEven"></rect><text transform="translate(131.6750030517578,145)" style="dominant-baseline: middle; font-size: 10.2px;" y="0" x="0" id="text-entity-seckillactivities-ff21f2a9-5c26-5c7d-8b07-237c329197ec-attr-6-key" class="er entityLabel"></text><rect height="22" width="58.66875076293945" y="156" x="0" class="er attributeBoxOdd"></rect><text transform="translate(5,167)" style="dominant-baseline: middle; font-size: 10.2px;" y="0" x="0" id="text-entity-seckillactivities-ff21f2a9-5c26-5c7d-8b07-237c329197ec-attr-7-type" class="er entityLabel">tinyint</text><rect height="22" width="68.00625228881836" y="156" x="58.66875076293945" class="er attributeBoxOdd"></rect><text transform="translate(63.66875076293945,167)" style="dominant-baseline: middle; font-size: 10.2px;" y="0" x="0" id="text-entity-seckillactivities-ff21f2a9-5c26-5c7d-8b07-237c329197ec-attr-7-name" class="er entityLabel">status</text><rect height="22" width="21.5625" y="156" x="126.67500305175781" class="er attributeBoxOdd"></rect><text transform="translate(131.6750030517578,167)" style="dominant-baseline: middle; font-size: 10.2px;" y="0" x="0" id="text-entity-seckillactivities-ff21f2a9-5c26-5c7d-8b07-237c329197ec-attr-7-key" class="er entityLabel"></text><rect height="22" width="58.66875076293945" y="178" x="0" class="er attributeBoxEven"></rect><text transform="translate(5,189)" style="dominant-baseline: middle; font-size: 10.2px;" y="0" x="0" id="text-entity-seckillactivities-ff21f2a9-5c26-5c7d-8b07-237c329197ec-attr-8-type" class="er entityLabel">timestamp</text><rect height="22" width="68.00625228881836" y="178" x="58.66875076293945" class="er attributeBoxEven"></rect><text transform="translate(63.66875076293945,189)" style="dominant-baseline: middle; font-size: 10.2px;" y="0" x="0" id="text-entity-seckillactivities-ff21f2a9-5c26-5c7d-8b07-237c329197ec-attr-8-name" class="er entityLabel">created_at</text><rect height="22" width="21.5625" y="178" x="126.67500305175781" class="er attributeBoxEven"></rect><text transform="translate(131.6750030517578,189)" style="dominant-baseline: middle; font-size: 10.2px;" y="0" x="0" id="text-entity-seckillactivities-ff21f2a9-5c26-5c7d-8b07-237c329197ec-attr-8-key" class="er entityLabel"></text><rect height="22" width="58.66875076293945" y="200" x="0" class="er attributeBoxOdd"></rect><text transform="translate(5,211)" style="dominant-baseline: middle; font-size: 10.2px;" y="0" x="0" id="text-entity-seckillactivities-ff21f2a9-5c26-5c7d-8b07-237c329197ec-attr-9-type" class="er entityLabel">timestamp</text><rect height="22" width="68.00625228881836" y="200" x="58.66875076293945" class="er attributeBoxOdd"></rect><text transform="translate(63.66875076293945,211)" style="dominant-baseline: middle; font-size: 10.2px;" y="0" x="0" id="text-entity-seckillactivities-ff21f2a9-5c26-5c7d-8b07-237c329197ec-attr-9-name" class="er entityLabel">updated_at</text><rect height="22" width="21.5625" y="200" x="126.67500305175781" class="er attributeBoxOdd"></rect><text transform="translate(131.6750030517578,211)" style="dominant-baseline: middle; font-size: 10.2px;" y="0" x="0" id="text-entity-seckillactivities-ff21f2a9-5c26-5c7d-8b07-237c329197ec-attr-9-key" class="er entityLabel"></text></g><g transform="translate(20,642 )" id="entity-seckillorders-29d6c6a6-2674-5c08-bfba-221f128e3712"><rect height="222" width="142.57500076293945" y="0" x="0" class="er entityBox"></rect><text transform="translate(71.28750038146973,12)" style="dominant-baseline: middle; text-anchor: middle; font-size: 12px;" y="0" x="0" id="text-entity-seckillorders-29d6c6a6-2674-5c08-bfba-221f128e3712" class="er entityLabel">seckill_orders</text><rect height="22" width="58.66875076293945" y="24" x="0" class="er attributeBoxOdd"></rect><text transform="translate(5,35)" style="dominant-baseline: middle; font-size: 10.2px;" y="0" x="0" id="text-entity-seckillorders-29d6c6a6-2674-5c08-bfba-221f128e3712-attr-1-type" class="er entityLabel">bigint</text><rect height="22" width="62.34375" y="24" x="58.66875076293945" class="er attributeBoxOdd"></rect><text transform="translate(63.66875076293945,35)" style="dominant-baseline: middle; font-size: 10.2px;" y="0" x="0" id="text-entity-seckillorders-29d6c6a6-2674-5c08-bfba-221f128e3712-attr-1-name" class="er entityLabel">id</text><rect height="22" width="21.5625" y="24" x="121.01250076293945" class="er attributeBoxOdd"></rect><text transform="translate(126.01250076293945,35)" style="dominant-baseline: middle; font-size: 10.2px;" y="0" x="0" id="text-entity-seckillorders-29d6c6a6-2674-5c08-bfba-221f128e3712-attr-1-key" class="er entityLabel">PK</text><rect height="22" width="58.66875076293945" y="46" x="0" class="er attributeBoxEven"></rect><text transform="translate(5,57)" style="dominant-baseline: middle; font-size: 10.2px;" y="0" x="0" id="text-entity-seckillorders-29d6c6a6-2674-5c08-bfba-221f128e3712-attr-2-type" class="er entityLabel">bigint</text><rect height="22" width="62.34375" y="46" x="58.66875076293945" class="er attributeBoxEven"></rect><text transform="translate(63.66875076293945,57)" style="dominant-baseline: middle; font-size: 10.2px;" y="0" x="0" id="text-entity-seckillorders-29d6c6a6-2674-5c08-bfba-221f128e3712-attr-2-name" class="er entityLabel">user_id</text><rect height="22" width="21.5625" y="46" x="121.01250076293945" class="er attributeBoxEven"></rect><text transform="translate(126.01250076293945,57)" style="dominant-baseline: middle; font-size: 10.2px;" y="0" x="0" id="text-entity-seckillorders-29d6c6a6-2674-5c08-bfba-221f128e3712-attr-2-key" class="er entityLabel"></text><rect height="22" width="58.66875076293945" y="68" x="0" class="er attributeBoxOdd"></rect><text transform="translate(5,79)" style="dominant-baseline: middle; font-size: 10.2px;" y="0" x="0" id="text-entity-seckillorders-29d6c6a6-2674-5c08-bfba-221f128e3712-attr-3-type" class="er entityLabel">bigint</text><rect height="22" width="62.34375" y="68" x="58.66875076293945" class="er attributeBoxOdd"></rect><text transform="translate(63.66875076293945,79)" style="dominant-baseline: middle; font-size: 10.2px;" y="0" x="0" id="text-entity-seckillorders-29d6c6a6-2674-5c08-bfba-221f128e3712-attr-3-name" class="er entityLabel">activity_id</text><rect height="22" width="21.5625" y="68" x="121.01250076293945" class="er attributeBoxOdd"></rect><text transform="translate(126.01250076293945,79)" style="dominant-baseline: middle; font-size: 10.2px;" y="0" x="0" id="text-entity-seckillorders-29d6c6a6-2674-5c08-bfba-221f128e3712-attr-3-key" class="er entityLabel">FK</text><rect height="22" width="58.66875076293945" y="90" x="0" class="er attributeBoxEven"></rect><text transform="translate(5,101)" style="dominant-baseline: middle; font-size: 10.2px;" y="0" x="0" id="text-entity-seckillorders-29d6c6a6-2674-5c08-bfba-221f128e3712-attr-4-type" class="er entityLabel">bigint</text><rect height="22" width="62.34375" y="90" x="58.66875076293945" class="er attributeBoxEven"></rect><text transform="translate(63.66875076293945,101)" style="dominant-baseline: middle; font-size: 10.2px;" y="0" x="0" id="text-entity-seckillorders-29d6c6a6-2674-5c08-bfba-221f128e3712-attr-4-name" class="er entityLabel">product_id</text><rect height="22" width="21.5625" y="90" x="121.01250076293945" class="er attributeBoxEven"></rect><text transform="translate(126.01250076293945,101)" style="dominant-baseline: middle; font-size: 10.2px;" y="0" x="0" id="text-entity-seckillorders-29d6c6a6-2674-5c08-bfba-221f128e3712-attr-4-key" class="er entityLabel">FK</text><rect height="22" width="58.66875076293945" y="112" x="0" class="er attributeBoxOdd"></rect><text transform="translate(5,123)" style="dominant-baseline: middle; font-size: 10.2px;" y="0" x="0" id="text-entity-seckillorders-29d6c6a6-2674-5c08-bfba-221f128e3712-attr-5-type" class="er entityLabel">varchar</text><rect height="22" width="62.34375" y="112" x="58.66875076293945" class="er attributeBoxOdd"></rect><text transform="translate(63.66875076293945,123)" style="dominant-baseline: middle; font-size: 10.2px;" y="0" x="0" id="text-entity-seckillorders-29d6c6a6-2674-5c08-bfba-221f128e3712-attr-5-name" class="er entityLabel">order_no</text><rect height="22" width="21.5625" y="112" x="121.01250076293945" class="er attributeBoxOdd"></rect><text transform="translate(126.01250076293945,123)" style="dominant-baseline: middle; font-size: 10.2px;" y="0" x="0" id="text-entity-seckillorders-29d6c6a6-2674-5c08-bfba-221f128e3712-attr-5-key" class="er entityLabel"></text><rect height="22" width="58.66875076293945" y="134" x="0" class="er attributeBoxEven"></rect><text transform="translate(5,145)" style="dominant-baseline: middle; font-size: 10.2px;" y="0" x="0" id="text-entity-seckillorders-29d6c6a6-2674-5c08-bfba-221f128e3712-attr-6-type" class="er entityLabel">decimal</text><rect height="22" width="62.34375" y="134" x="58.66875076293945" class="er attributeBoxEven"></rect><text transform="translate(63.66875076293945,145)" style="dominant-baseline: middle; font-size: 10.2px;" y="0" x="0" id="text-entity-seckillorders-29d6c6a6-2674-5c08-bfba-221f128e3712-attr-6-name" class="er entityLabel">price</text><rect height="22" width="21.5625" y="134" x="121.01250076293945" class="er attributeBoxEven"></rect><text transform="translate(126.01250076293945,145)" style="dominant-baseline: middle; font-size: 10.2px;" y="0" x="0" id="text-entity-seckillorders-29d6c6a6-2674-5c08-bfba-221f128e3712-attr-6-key" class="er entityLabel"></text><rect height="22" width="58.66875076293945" y="156" x="0" class="er attributeBoxOdd"></rect><text transform="translate(5,167)" style="dominant-baseline: middle; font-size: 10.2px;" y="0" x="0" id="text-entity-seckillorders-29d6c6a6-2674-5c08-bfba-221f128e3712-attr-7-type" class="er entityLabel">tinyint</text><rect height="22" width="62.34375" y="156" x="58.66875076293945" class="er attributeBoxOdd"></rect><text transform="translate(63.66875076293945,167)" style="dominant-baseline: middle; font-size: 10.2px;" y="0" x="0" id="text-entity-seckillorders-29d6c6a6-2674-5c08-bfba-221f128e3712-attr-7-name" class="er entityLabel">status</text><rect height="22" width="21.5625" y="156" x="121.01250076293945" class="er attributeBoxOdd"></rect><text transform="translate(126.01250076293945,167)" style="dominant-baseline: middle; font-size: 10.2px;" y="0" x="0" id="text-entity-seckillorders-29d6c6a6-2674-5c08-bfba-221f128e3712-attr-7-key" class="er entityLabel"></text><rect height="22" width="58.66875076293945" y="178" x="0" class="er attributeBoxEven"></rect><text transform="translate(5,189)" style="dominant-baseline: middle; font-size: 10.2px;" y="0" x="0" id="text-entity-seckillorders-29d6c6a6-2674-5c08-bfba-221f128e3712-attr-8-type" class="er entityLabel">timestamp</text><rect height="22" width="62.34375" y="178" x="58.66875076293945" class="er attributeBoxEven"></rect><text transform="translate(63.66875076293945,189)" style="dominant-baseline: middle; font-size: 10.2px;" y="0" x="0" id="text-entity-seckillorders-29d6c6a6-2674-5c08-bfba-221f128e3712-attr-8-name" class="er entityLabel">created_at</text><rect height="22" width="21.5625" y="178" x="121.01250076293945" class="er attributeBoxEven"></rect><text transform="translate(126.01250076293945,189)" style="dominant-baseline: middle; font-size: 10.2px;" y="0" x="0" id="text-entity-seckillorders-29d6c6a6-2674-5c08-bfba-221f128e3712-attr-8-key" class="er entityLabel"></text><rect height="22" width="58.66875076293945" y="200" x="0" class="er attributeBoxOdd"></rect><text transform="translate(5,211)" style="dominant-baseline: middle; font-size: 10.2px;" y="0" x="0" id="text-entity-seckillorders-29d6c6a6-2674-5c08-bfba-221f128e3712-attr-9-type" class="er entityLabel">timestamp</text><rect height="22" width="62.34375" y="200" x="58.66875076293945" class="er attributeBoxOdd"></rect><text transform="translate(63.66875076293945,211)" style="dominant-baseline: middle; font-size: 10.2px;" y="0" x="0" id="text-entity-seckillorders-29d6c6a6-2674-5c08-bfba-221f128e3712-attr-9-name" class="er entityLabel">updated_at</text><rect height="22" width="21.5625" y="200" x="121.01250076293945" class="er attributeBoxOdd"></rect><text transform="translate(126.01250076293945,211)" style="dominant-baseline: middle; font-size: 10.2px;" y="0" x="0" id="text-entity-seckillorders-29d6c6a6-2674-5c08-bfba-221f128e3712-attr-9-key" class="er entityLabel"></text></g><rect height="14" width="17.71875" y="260.4835205078125" x="163.88438415527344" class="er relationshipLabelBox"></rect><text style="text-anchor: middle; dominant-baseline: middle; font-size: 12px;" y="267.4835205078125" x="172.74375915527344" id="rel1" class="er relationshipLabel">has</text><rect height="14" width="44.837501525878906" y="423.6864013671875" x="-18.19071388244629" class="er relationshipLabelBox"></rect><text style="text-anchor: middle; dominant-baseline: middle; font-size: 12px;" y="430.6864013671875" x="4.228036880493164" id="rel2" class="er relationshipLabel">contains</text><rect height="14" width="52.79999923706055" y="587.215087890625" x="146.8159885406494" class="er relationshipLabelBox"></rect><text style="text-anchor: middle; dominant-baseline: middle; font-size: 12px;" y="594.215087890625" x="173.2159881591797" id="rel3" class="er relationshipLabel">generates</text></svg>